<svg width="16" height="18" viewBox="0 0 16 18" fill="none" xmlns="http://www.w3.org/2000/svg">
<path d="M14.3575 7.58593L7.88887 15.0431C7.29214 15.731 6.44658 16.1537 5.53819 16.2182C4.62981 16.2826 3.73302 15.9836 3.0451 15.3869C2.35719 14.7902 1.9345 13.9446 1.87002 13.0362C1.80554 12.1278 2.10456 11.231 2.70129 10.5431L9.73246 2.43753C10.1054 2.00758 10.6339 1.7434 11.2016 1.7031C11.7694 1.6628 12.3299 1.84969 12.7598 2.22265C13.1898 2.5956 13.4539 3.12408 13.4942 3.69182C13.5345 4.25956 13.3477 4.82005 12.9747 5.25L7.06851 12.0587C6.91933 12.2307 6.70794 12.3364 6.48085 12.3525C6.25375 12.3686 6.02955 12.2938 5.85757 12.1447C5.68559 11.9955 5.57992 11.7841 5.5638 11.557C5.54768 11.3299 5.62244 11.1057 5.77162 10.9337L11.1153 4.77346L10.1426 3.92972L4.79895 10.09C4.42599 10.5199 4.23911 11.0804 4.2794 11.6482C4.3197 12.2159 4.58388 12.7444 5.01383 13.1173C5.44378 13.4903 6.00427 13.6772 6.57201 13.6369C7.13975 13.5966 7.66823 13.3324 8.04119 12.9024L13.9474 6.09374C14.5441 5.40582 14.8431 4.50903 14.7786 3.60065C14.7142 2.69227 14.2915 1.84671 13.6036 1.24998C12.9156 0.653245 12.0188 0.354228 11.1105 0.418706C10.2021 0.483184 9.35652 0.905874 8.75979 1.59379L1.72862 9.69938C0.908113 10.6453 0.496965 11.8784 0.585622 13.1274C0.674279 14.3764 1.25548 15.5391 2.20136 16.3596C3.14725 17.1801 4.38034 17.5912 5.62936 17.5026C6.87839 17.4139 8.04104 16.8327 8.86154 15.8868L15.3302 8.42967L14.3575 7.58593Z" fill="#333333"/>
</svg>
