<svg width="102" height="102" viewBox="0 0 102 102" fill="none" xmlns="http://www.w3.org/2000/svg">
<circle cx="51" cy="51" r="51" fill="#FDE1E6"/>
<path d="M41.3894 49.3728C44.1462 54.7906 48.5876 59.232 54.0054 61.9888L58.2171 57.777C58.7531 57.241 59.4998 57.0879 60.1698 57.2984C62.314 58.0068 64.6113 58.3897 67.0043 58.3897C67.512 58.3897 67.999 58.5914 68.358 58.9504C68.717 59.3094 68.9187 59.7963 68.9187 60.3041V67.0045C68.9187 67.5123 68.717 67.9992 68.358 68.3582C67.999 68.7172 67.512 68.9189 67.0043 68.9189C58.3728 68.9189 50.0948 65.4901 43.9915 59.3867C37.8881 53.2833 34.4592 45.0054 34.4592 36.3739C34.4592 35.8662 34.6609 35.3792 35.0199 35.0202C35.379 34.6612 35.8659 34.4595 36.3736 34.4595H43.0741C43.5818 34.4595 44.0688 34.6612 44.4278 35.0202C44.7868 35.3792 44.9885 35.8662 44.9885 36.3739C44.9885 38.7669 45.3714 41.0642 46.0797 43.2083C46.2903 43.8784 46.1372 44.625 45.6011 45.161L41.3894 49.3728Z" fill="#EF4325"/>
</svg>
