<svg width="83" height="83" viewBox="0 0 83 83" fill="none" xmlns="http://www.w3.org/2000/svg">
<circle cx="41.5" cy="41.5" r="41.5" fill="white"/>
<path d="M32.4356 39.2921C34.9956 44.4775 39.12 48.7102 44.1511 51.367L48.0622 47.3359C48.5422 46.8412 49.2533 46.6763 49.8756 46.8962C51.8667 47.5741 54.0178 47.9406 56.2222 47.9406C57.2 47.9406 58 48.7651 58 49.7729V56.1677C58 57.1755 57.2 58 56.2222 58C39.5289 58 26 44.0561 26 26.8506C26 25.8429 26.8 25.0183 27.7778 25.0183H34C34.9778 25.0183 35.7778 25.8429 35.7778 26.8506C35.7778 29.141 36.1333 31.3398 36.7911 33.392C36.9867 34.0333 36.8444 34.7479 36.3467 35.261L32.4356 39.2921ZM56.5067 26.2826L55.2444 25L43.7778 36.5436V28.683H42V39.6768H52.6667V37.8445H45.2889L56.5067 26.2826Z" fill="#EF4325"/>
</svg>
