<svg width="83" height="83" viewBox="0 0 83 83" fill="none" xmlns="http://www.w3.org/2000/svg">
<circle cx="41.5" cy="41.5" r="41.5" fill="white"/>
<path d="M32.2344 39.4161C34.7144 44.29 38.71 48.2856 43.5839 50.7656L47.3728 46.9767C47.855 46.4944 48.5267 46.3567 49.1294 46.5461C51.0583 47.1833 53.125 47.5278 55.2778 47.5278C55.7345 47.5278 56.1726 47.7092 56.4956 48.0322C56.8186 48.3552 57 48.7932 57 49.25V55.2778C57 55.7345 56.8186 56.1726 56.4956 56.4956C56.1726 56.8186 55.7345 57 55.2778 57C47.5128 57 40.0659 53.9154 34.5753 48.4247C29.0846 42.9341 26 35.4872 26 27.7222C26 27.2655 26.1814 26.8274 26.5044 26.5044C26.8274 26.1814 27.2655 26 27.7222 26H33.75C34.2068 26 34.6448 26.1814 34.9678 26.5044C35.2908 26.8274 35.4722 27.2655 35.4722 27.7222C35.4722 29.875 35.8167 31.9417 36.4539 33.8706C36.6433 34.4733 36.5056 35.145 36.0233 35.6272L32.2344 39.4161Z" fill="#EF4325"/>
<path d="M41.2929 38.2929L40.5858 39L42 40.4142L42.7071 39.7071L41.2929 38.2929ZM55 27C55 26.4477 54.5523 26 54 26L45 26C44.4477 26 44 26.4477 44 27C44 27.5523 44.4477 28 45 28H53V36C53 36.5523 53.4477 37 54 37C54.5523 37 55 36.5523 55 36V27ZM42.7071 39.7071L54.7071 27.7071L53.2929 26.2929L41.2929 38.2929L42.7071 39.7071Z" fill="#EF4325"/>
</svg>
