<svg width="103" height="102" viewBox="0 0 103 102" fill="none" xmlns="http://www.w3.org/2000/svg">
<circle cx="51.2432" cy="51" r="51" fill="#FDE1E6"/>
<path d="M51.3262 30.3243C39.9805 30.3243 30.7336 39.525 30.7336 50.8139C30.7336 54.4321 31.6895 57.947 33.4765 61.0484L30.5674 71.6757L41.4767 68.8224C44.4897 70.4558 47.8768 71.3242 51.3262 71.3242C62.6718 71.3242 71.9187 62.1235 71.9187 50.8346C71.9187 45.3555 69.7784 40.2073 65.8927 36.3409C62.0069 32.4539 56.8328 30.3243 51.3262 30.3243ZM51.347 33.7771C55.9185 33.7771 60.1991 35.5553 63.4407 38.7807C66.6615 42.0061 68.4485 46.2859 68.4485 50.8346C68.4485 60.2213 60.7601 67.8507 51.3262 67.8507C48.2508 67.8507 45.2378 67.0443 42.6195 65.473L41.9961 65.1215L35.5129 66.8169L37.2376 60.5315L36.822 59.8699C35.1181 57.2027 34.2038 54.0393 34.2038 50.8139C34.2246 41.4271 41.8922 33.7771 51.347 33.7771ZM44.0325 41.3444C43.7001 41.3444 43.139 41.4685 42.6611 41.9854C42.2039 42.5023 40.8533 43.7635 40.8533 46.2653C40.8533 48.7877 42.7027 51.2067 42.9312 51.5582C43.2221 51.9097 46.5884 57.0786 51.7625 59.2703C52.9885 59.8285 53.9444 60.1386 54.6925 60.3661C55.9185 60.7589 57.0406 60.6969 57.9341 60.5728C58.9315 60.4281 60.9679 59.3323 61.4043 58.1331C61.8406 56.9339 61.8406 55.9208 61.716 55.6934C61.5705 55.4866 61.238 55.3626 60.7185 55.1351C60.1991 54.8457 57.6639 53.6051 57.2068 53.4397C56.7289 53.2743 56.438 53.1916 56.0431 53.6878C55.7107 54.2047 54.7132 55.3626 54.4223 55.6934C54.1106 56.0449 53.8197 56.0862 53.321 55.8381C52.7807 55.5693 51.1184 55.0317 49.1651 53.295C47.6274 51.9304 46.6092 50.2557 46.2975 49.7388C46.0482 49.2426 46.2767 48.9324 46.5261 48.705C46.7547 48.4776 47.0871 48.1054 47.2949 47.7953C47.5651 47.5058 47.6482 47.2784 47.8144 46.9476C47.9807 46.5961 47.8975 46.3066 47.7729 46.0585C47.6482 45.8311 46.6092 43.2673 46.1728 42.2542C45.7572 41.2617 45.3417 41.3858 45.0092 41.3651C44.7183 41.3651 44.3858 41.3444 44.0325 41.3444Z" fill="#EF4325"/>
</svg>
