<svg width="51" height="51" viewBox="0 0 51 51" fill="none" xmlns="http://www.w3.org/2000/svg">
<circle cx="25.5" cy="25.5" r="25.5" fill="#FBD6E6"/>
<path d="M25.5 13.1611C18.7137 13.1611 13.1613 18.7235 13.1613 25.5742C13.1613 31.7683 17.6773 36.9094 23.5752 37.8386V29.1668H20.4411V25.5742H23.5752V22.8364C23.5752 19.7269 25.4136 18.0173 28.2392 18.0173C29.5841 18.0173 30.9907 18.2527 30.9907 18.2527V21.3126H29.4361C27.9061 21.3126 27.4248 22.2665 27.4248 23.2452V25.5742H30.855L30.2998 29.1668H27.4248V37.8386C30.3324 37.3775 32.98 35.888 34.8897 33.639C36.7994 31.39 37.8453 28.5296 37.8387 25.5742C37.8387 18.7235 32.2863 13.1611 25.5 13.1611Z" fill="#EF4325"/>
</svg>
