<svg width="51" height="51" viewBox="0 0 51 51" fill="none" xmlns="http://www.w3.org/2000/svg">
<circle cx="25.5" cy="25.5" r="25.5" fill="#FBD6E6"/>
<path d="M39.4839 24.0792H36.9413V21.5367H34.3988V24.0792H31.8563V26.6217H34.3988V29.1643H36.9413V26.6217H39.4839M20.4149 24.0792V27.1303H25.5C25.2457 28.4015 23.9745 30.944 20.4149 30.944C17.3639 30.944 14.9485 28.4015 14.9485 25.3505C14.9485 22.2995 17.3639 19.7569 20.4149 19.7569C22.1947 19.7569 23.3388 20.5197 23.9745 21.1553L26.3899 18.8671C24.8644 17.3415 22.8303 16.4517 20.4149 16.4517C15.457 16.4517 11.5161 20.3926 11.5161 25.3505C11.5161 30.3084 15.457 34.2493 20.4149 34.2493C25.5 34.2493 28.9324 30.6898 28.9324 25.6047C28.9324 24.9691 28.9324 24.5877 28.8053 24.0792H20.4149Z" fill="#EF4325"/>
</svg>
