<svg width="51" height="51" viewBox="0 0 51 51" fill="none" xmlns="http://www.w3.org/2000/svg">
<circle cx="25.5" cy="25.5" r="25.5" fill="#FBD6E6"/>
<path d="M20.3178 13.1611H30.6823C34.6307 13.1611 37.8387 16.3692 37.8387 20.3176V30.6821C37.8387 32.5801 37.0848 34.4004 35.7427 35.7425C34.4006 37.0846 32.5803 37.8386 30.6823 37.8386H20.3178C16.3694 37.8386 13.1613 34.6305 13.1613 30.6821V20.3176C13.1613 18.4196 13.9153 16.5993 15.2574 15.2572C16.5995 13.9151 18.4198 13.1611 20.3178 13.1611ZM20.071 15.6289C18.8929 15.6289 17.7631 16.0969 16.9301 16.9299C16.097 17.7629 15.6291 18.8927 15.6291 20.0708V30.9289C15.6291 33.3843 17.6156 35.3708 20.071 35.3708H30.9291C32.1071 35.3708 33.237 34.9028 34.07 34.0698C34.903 33.2368 35.371 32.1069 35.371 30.9289V20.0708C35.371 17.6154 33.3845 15.6289 30.9291 15.6289H20.071ZM31.9778 17.4797C32.3869 17.4797 32.7792 17.6422 33.0684 17.9314C33.3577 18.2207 33.5202 18.613 33.5202 19.022C33.5202 19.4311 33.3577 19.8234 33.0684 20.1126C32.7792 20.4019 32.3869 20.5644 31.9778 20.5644C31.5688 20.5644 31.1765 20.4019 30.8872 20.1126C30.598 19.8234 30.4355 19.4311 30.4355 19.022C30.4355 18.613 30.598 18.2207 30.8872 17.9314C31.1765 17.6422 31.5688 17.4797 31.9778 17.4797ZM25.5 19.3305C27.1362 19.3305 28.7054 19.9805 29.8624 21.1374C31.0194 22.2944 31.6694 23.8636 31.6694 25.4998C31.6694 27.1361 31.0194 28.7053 29.8624 29.8622C28.7054 31.0192 27.1362 31.6692 25.5 31.6692C23.8638 31.6692 22.2946 31.0192 21.1376 29.8622C19.9807 28.7053 19.3307 27.1361 19.3307 25.4998C19.3307 23.8636 19.9807 22.2944 21.1376 21.1374C22.2946 19.9805 23.8638 19.3305 25.5 19.3305ZM25.5 21.7982C24.5183 21.7982 23.5768 22.1882 22.8826 22.8824C22.1884 23.5766 21.7984 24.5181 21.7984 25.4998C21.7984 26.4816 22.1884 27.4231 22.8826 28.1173C23.5768 28.8115 24.5183 29.2015 25.5 29.2015C26.4818 29.2015 27.4233 28.8115 28.1175 28.1173C28.8116 27.4231 29.2016 26.4816 29.2016 25.4998C29.2016 24.5181 28.8116 23.5766 28.1175 22.8824C27.4233 22.1882 26.4818 21.7982 25.5 21.7982Z" fill="#EF4325"/>
</svg>
