<svg width="51" height="51" viewBox="0 0 51 51" fill="none" xmlns="http://www.w3.org/2000/svg">
<circle cx="25.5" cy="25.5" r="25.5" fill="#FBD6E6"/>
<path d="M35.0968 13.1611C35.824 13.1611 36.5214 13.45 37.0356 13.9642C37.5499 14.4784 37.8387 15.1759 37.8387 15.9031V35.0966C37.8387 35.8238 37.5499 36.5212 37.0356 37.0355C36.5214 37.5497 35.824 37.8386 35.0968 37.8386H15.9033C15.176 37.8386 14.4786 37.5497 13.9644 37.0355C13.4502 36.5212 13.1613 35.8238 13.1613 35.0966V15.9031C13.1613 15.1759 13.4502 14.4784 13.9644 13.9642C14.4786 13.45 15.176 13.1611 15.9033 13.1611H35.0968ZM34.4113 34.4111V27.145C34.4113 25.9597 33.9404 24.8229 33.1023 23.9847C32.2641 23.1465 31.1273 22.6756 29.942 22.6756C28.7766 22.6756 27.4194 23.3886 26.7613 24.4579V22.9361H22.9363V34.4111H26.7613V27.6523C26.7613 26.5966 27.6113 25.7329 28.667 25.7329C29.176 25.7329 29.6642 25.9351 30.0242 26.2951C30.3841 26.655 30.5863 27.1432 30.5863 27.6523V34.4111H34.4113ZM18.4807 20.7837C19.0915 20.7837 19.6774 20.5411 20.1093 20.1091C20.5412 19.6772 20.7839 19.0913 20.7839 18.4805C20.7839 17.2055 19.7557 16.1636 18.4807 16.1636C17.8662 16.1636 17.2769 16.4077 16.8423 16.8422C16.4078 17.2767 16.1637 17.866 16.1637 18.4805C16.1637 19.7555 17.2057 20.7837 18.4807 20.7837ZM20.3863 34.4111V22.9361H16.5887V34.4111H20.3863Z" fill="#EF4325"/>
</svg>
