<svg width="94" height="46" viewBox="0 0 94 46" fill="none" xmlns="http://www.w3.org/2000/svg">
<path d="M88.3203 33.8815H0V8.7738e-05H88.3203V33.8815Z" fill="#EF4325"/>
<path d="M84.2355 46L37.2487 33.6482L46.0939 0L93.0807 12.3518L84.2355 46Z" fill="#FBD6E6"/>
<path d="M59.149 11.9407C59.4686 12.0352 59.5469 12.2432 59.3941 12.5232L51.0014 27.6699C50.8612 27.9068 50.6743 27.9909 50.4182 27.9152L48.2857 27.2853C48.0294 27.2096 47.9178 27.0376 47.93 26.7625L49.1341 9.49285C49.1584 9.1747 49.3369 9.04236 49.6562 9.13714L51.6828 9.7353C51.9388 9.81071 52.0503 9.98294 52.0399 10.258L50.902 22.3527L56.5402 11.5873C56.6795 11.3503 56.8674 11.2665 57.1228 11.3419L59.149 11.9407Z" fill="black"/>
<path d="M69.0404 17.5525C68.978 17.7657 68.8474 17.8897 68.5919 17.814L63.2591 16.2386L61.9992 20.5045L66.0736 21.7084C66.2868 21.7714 66.3764 21.9375 66.3071 22.1719L65.6832 24.2836C65.6138 24.518 65.4488 24.609 65.2356 24.546L61.1612 23.3425L59.8883 27.6506L65.2214 29.2261C65.4769 29.3018 65.5309 29.4335 65.4624 29.6682L64.8316 31.8013C64.7692 32.0149 64.6455 32.1175 64.3895 32.0417L56.5404 29.7234C56.3473 29.6665 56.2583 29.5012 56.321 29.2873L61.1603 12.9053C61.223 12.6921 61.388 12.6019 61.5802 12.6589L69.4299 14.9772C69.6854 15.0529 69.7336 15.2058 69.6712 15.4191L69.0404 17.5525Z" fill="black"/>
<path d="M79.6663 18.0012C79.9015 18.0706 79.9709 18.2295 79.9082 18.4428L79.2774 20.5762C79.2149 20.7895 79.0702 20.886 78.8352 20.8166L76.3611 20.0855L72.2526 33.9934C72.1833 34.228 72.0454 34.3032 71.8105 34.2338L69.5933 33.579C69.3795 33.5158 69.2829 33.3713 69.3523 33.1366L73.4608 19.2288L70.9861 18.498C70.7728 18.435 70.6824 18.2691 70.7448 18.0558L71.3756 15.9224C71.438 15.7092 71.6039 15.6196 71.8172 15.6826L79.6663 18.0012Z" fill="black"/>
<path d="M13.9968 16.0864C14.5972 16.0864 14.8868 15.753 14.8868 15.1967V11.0154C14.8868 10.4374 14.5972 10.1257 13.9968 10.1257H12.0399V16.0864H13.9968ZM9.01501 7.54549C9.01501 7.32327 9.14823 7.18977 9.37073 7.18977H14.7088C16.7991 7.18977 17.9117 8.302 17.9117 10.3924V15.8197C17.9117 17.8881 16.7991 19.0226 14.7088 19.0226H12.0399V24.6273C12.0399 24.8501 11.9284 24.9834 11.6842 24.9834H9.37073C9.14823 24.9834 9.01501 24.8501 9.01501 24.6273V7.54549Z" fill="#FBD6E6"/>
<path d="M25.1398 16.0864C25.7177 16.0864 26.0298 15.7752 26.0298 15.1967V11.0154C26.0298 10.4374 25.7177 10.1257 25.1398 10.1257H22.9378V16.0864H25.1398ZM29.0547 15.8197C29.0547 17.3099 28.4984 18.2886 27.4307 18.7556L28.9657 24.5828C29.0318 24.8501 28.8986 24.9834 28.6536 24.9834H26.341C26.1188 24.9834 26.0072 24.8724 25.9627 24.6721L24.472 19.0226H22.9378V24.6273C22.9378 24.8501 22.8043 24.9834 22.5821 24.9834H20.2687C20.0465 24.9834 19.913 24.8501 19.913 24.6273V7.54549C19.913 7.32327 20.0465 7.18977 20.2687 7.18977H25.8512C27.9421 7.18977 29.0547 8.302 29.0547 10.3924V15.8197Z" fill="#FBD6E6"/>
<path d="M40.1515 9.77002C40.1515 9.99223 40.062 10.148 39.7952 10.148H34.2344V14.5963H38.4831C38.7056 14.5963 38.8388 14.7301 38.8388 14.9746V17.1765C38.8388 17.4209 38.7056 17.5547 38.4831 17.5547H34.2344V22.0475H39.7952C40.062 22.0475 40.1515 22.1588 40.1515 22.4033V24.6274C40.1515 24.8499 40.062 24.9834 39.7952 24.9834H31.6106C31.4101 24.9834 31.2769 24.8499 31.2769 24.6274V7.54557C31.2769 7.32306 31.4101 7.18985 31.6106 7.18985H39.7952C40.062 7.18985 40.1515 7.32306 40.1515 7.54557V9.77002Z" fill="#FBD6E6"/>
<path d="M3.45325 30.8254H3.04871V30.4171H3.45325V30.8254Z" fill="#FBD6E6"/>
<path d="M30.619 30.417V30.8253H3.34015V30.417H3.04858V3.25139H3.45313V30.417H30.619Z" fill="#FBD6E6"/>
<path d="M85.2229 3.25125V8.94992H84.8183V3.65955H72.2362V3.25125" fill="#FBD6E6"/>
</svg>
