<svg width="83" height="83" viewBox="0 0 83 83" fill="none" xmlns="http://www.w3.org/2000/svg">
<circle cx="41.5" cy="41.5" r="41.5" fill="white"/>
<path d="M54.7095 25.1118C54.0663 25.2955 52.4738 26.689 52.4738 27.0872C52.4738 27.2097 53.316 28.1591 54.3573 29.1851C56.103 30.9308 56.2714 31.0533 56.639 30.9155C57.2055 30.7011 58.2622 29.4148 58.4612 28.6951C59.0584 26.5053 56.9452 24.4992 54.7095 25.1118Z" fill="#EF4325"/>
<path d="M37.8496 27.3782C30.5146 27.4547 30.3308 27.47 29.5039 27.7916C27.0844 28.7717 25.3846 30.4867 24.4658 32.8909L24.0677 33.8863L24.0217 42.9058C23.9758 51.7568 23.9758 51.9253 24.2974 53.0125C25.1396 55.8148 27.1916 57.8515 30.0398 58.7244C30.8974 58.9847 31.6784 59 40.5294 59H50.1002L51.0956 58.6478C53.0097 57.9587 54.4338 56.8561 55.5364 55.2176C56.7461 53.3954 56.7768 53.1963 56.7308 45.4172L56.6849 38.5721L54.7401 40.4404L52.7953 42.3086L52.7341 47.0557L52.6728 51.8028L52.2747 52.5838C51.8459 53.4413 51.264 53.9926 50.2686 54.5285C49.6408 54.8654 49.5795 54.8654 40.606 54.9114C31.6784 54.9573 31.5712 54.942 30.7749 54.6204C29.7642 54.207 28.4932 52.89 28.3248 52.0631C28.2635 51.7568 28.2023 47.6682 28.2023 42.9977V34.4988L28.6617 33.6872C29.1517 32.7837 29.6723 32.2784 30.6371 31.7731C31.2343 31.4668 31.4946 31.4515 36.3336 31.3902L41.4023 31.329L43.4542 29.277C44.5874 28.1438 45.4756 27.2403 45.4297 27.2557C45.3837 27.271 41.9842 27.3322 37.8496 27.3782Z" fill="#EF4325"/>
<path d="M50.0849 29.3689C49.8399 29.522 46.8998 32.3856 43.5615 35.7545C39.4116 39.9044 37.4668 41.9564 37.4668 42.1861C37.4668 42.3851 38.11 43.1661 39.1666 44.284C40.4988 45.6775 40.9582 46.0603 41.2798 46.0603C41.6014 46.0603 42.8417 44.8965 48.0789 39.6594C51.5856 36.1373 54.4645 33.1666 54.4645 33.0594C54.4645 32.845 51.2181 29.4454 50.774 29.2157C50.6209 29.1239 50.3759 29.1698 50.0849 29.3689Z" fill="#EF4325"/>
<path d="M34.8482 45.7081C33.9294 47.7448 33.3322 49.2608 33.3322 49.5823C33.3322 49.7661 33.4853 49.9652 33.6844 50.0571C33.9906 50.1949 34.4041 50.0724 36.257 49.2761C37.4667 48.7554 38.554 48.2501 38.6612 48.1735C39.0593 47.8366 38.8143 47.3925 37.4974 46.045C35.7363 44.284 35.5066 44.2533 34.8482 45.7081Z" fill="#EF4325"/>
</svg>
