<svg width="92" height="92" viewBox="0 0 92 92" fill="none" xmlns="http://www.w3.org/2000/svg">
<circle cx="46" cy="46" r="46" fill="#FDE1E6"/>
<path d="M62.7358 38.6432C64.2453 40.1455 64.2453 42.5869 62.7358 43.9014L57.4528 49.1596L42.7358 34.5117L48.0189 29.2535C49.5283 27.7512 51.9811 27.7512 53.3019 29.2535L56.6981 32.6338L62.3585 27L65 29.6291L59.3396 35.2629L62.7358 38.6432ZM51.7925 49.5352L49.1509 46.9061L43.8679 52.1643L39.9057 48.2207L45.1887 42.9624L42.5472 40.3333L37.2642 45.5915L34.434 42.9624L29.1509 48.2207C27.6415 49.723 27.6415 52.1643 29.1509 53.4789L32.5472 56.8592L25 64.3709L27.6415 67L35.1887 59.4883L38.5849 62.8685C40.0943 64.3709 42.5472 64.3709 43.8679 62.8685L49.1509 57.6103L46.5094 54.9812L51.7925 49.5352Z" fill="#EF4325"/>
</svg>
