<svg width="92" height="92" viewBox="0 0 92 92" fill="none" xmlns="http://www.w3.org/2000/svg">
<circle cx="46" cy="46" r="46" fill="#FDE1E6"/>
<path d="M49.3176 23.1963C46.6766 23.6765 44.369 24.9169 42.2749 26.9844C40.7677 28.4649 39.874 29.7854 39.1804 31.5327C38.7403 32.6131 38.2868 34.4805 38.2868 35.1474V35.6543H37.6999C37.3264 35.6543 37.0597 35.7343 36.9396 35.8677C36.7395 36.1078 36.8462 36.3345 38.1134 38.2819C38.6869 39.1623 38.9003 39.389 39.1138 39.3623C39.3005 39.3357 39.714 38.8021 40.3942 37.7351C41.528 35.9611 41.5413 35.7476 40.5676 35.681L39.9941 35.6409L40.0875 35.0807C40.7544 30.8258 43.422 27.3045 47.2234 25.7039C50.2779 24.4234 53.8126 24.4768 56.7737 25.8506C58.7477 26.7576 60.6284 28.3449 61.6822 29.9855C62.2957 30.9459 62.4958 31.1193 62.9626 31.1193C63.4295 31.1193 63.7629 30.7458 63.7629 30.2256C63.7629 29.7854 62.896 28.4649 61.8422 27.2912C60.5484 25.8506 58.2142 24.3567 56.2001 23.6631C54.2527 23.0096 51.4517 22.8095 49.3176 23.1963Z" fill="#EF4325"/>
<path d="M49.9178 28.118C47.8503 28.5848 45.8096 29.9987 44.6491 31.7594C42.515 34.9872 42.6484 38.8553 44.9826 42.0032C46.023 43.3904 48.0371 44.6842 49.8911 45.1377C50.8381 45.3644 52.9456 45.3644 53.8926 45.1377C57.0538 44.3641 59.6547 41.6964 60.375 38.5085C60.8419 36.3744 60.3883 33.7201 59.2546 32.0261C58.0408 30.1988 56.6803 29.1184 54.6662 28.3848C53.4524 27.9313 51.2516 27.8112 49.9178 28.118ZM52.2653 30.5589C52.3587 30.6256 52.4787 30.9324 52.5321 31.2525C52.6121 31.7594 52.6788 31.8527 53.0256 31.9328C54.5062 32.2662 55.1331 33.1065 54.3994 33.7868C54.0527 34.1069 53.6925 34.1202 53.0523 33.8535C52.4254 33.5867 51.3717 33.6 50.9848 33.8668C50.6514 34.0936 50.598 34.6138 50.8915 34.8939C50.9982 35.0006 51.5451 35.2807 52.1186 35.5208C53.9059 36.241 54.2794 36.4678 54.7462 37.0013C55.4532 37.8416 55.5465 38.6953 55.0263 39.749C54.6529 40.4959 54.0126 40.9895 53.119 41.2696C52.6788 41.403 52.5588 41.4963 52.5588 41.7364C52.5588 41.8965 52.5054 42.1899 52.4254 42.3766C52.3187 42.6701 52.212 42.7234 51.7718 42.7234C51.1716 42.7234 50.9582 42.4834 50.9582 41.8164C50.9582 41.483 50.8915 41.4163 50.558 41.3363C49.0908 41.0428 48.2905 40.2692 48.704 39.5356C49.0108 38.9887 49.5176 38.882 50.2246 39.2288C51.3983 39.789 52.6521 39.7757 53.0389 39.1888C53.2123 38.922 53.2257 38.8153 53.0656 38.4952C52.9322 38.2151 52.5854 38.0017 51.4517 37.5215C49.1575 36.5611 48.4639 35.8009 48.5839 34.3603C48.6773 33.3466 49.1575 32.693 50.1579 32.2262C50.9182 31.8661 50.9582 31.826 50.9582 31.3592C50.9582 31.0924 51.0515 30.7723 51.1716 30.6656C51.385 30.4389 51.9852 30.3855 52.2653 30.5589Z" fill="#EF4325"/>
<path d="M64.003 34.2804C63.6295 34.7205 62.1623 37.1081 62.1623 37.2948C62.1623 37.5883 62.4558 37.7883 62.9226 37.7883C63.3361 37.7883 63.3628 37.815 63.3628 38.2418C63.3628 38.4953 63.2161 39.2155 63.0293 39.8424C62.149 42.8969 60.255 45.3245 57.5339 46.9117C54.5195 48.6724 50.6114 48.9658 47.2634 47.6587C45.1293 46.8317 42.9952 45.1244 41.7547 43.2304C41.1412 42.2833 40.7143 42.0032 40.1808 42.2033C40.0207 42.27 39.8073 42.4701 39.7273 42.6701C39.5806 42.9636 39.6073 43.1103 39.9274 43.6972C40.1275 44.084 40.6743 44.8443 41.1545 45.4178C42.9285 47.5253 45.5428 49.1659 48.2238 49.8862C50.0245 50.353 52.9456 50.393 54.6929 49.9662C58.7477 48.9525 61.9889 46.3915 63.8163 42.7635C64.4432 41.5097 64.8967 40.1092 65.0968 38.8287L65.2702 37.8017L65.8704 37.7617C66.8974 37.695 66.8841 37.5082 65.7103 35.6675C64.6433 34.0136 64.4032 33.8135 64.003 34.2804Z" fill="#EF4325"/>
<path d="M63.2961 49.8996C62.9359 50.033 61.4554 50.8333 60.0282 51.6736C58.601 52.5273 57.2805 53.3009 57.1071 53.3943L56.787 53.5543L57.2005 53.7277C58.3876 54.2346 58.0541 55.7018 56.4002 57.1957C55.013 58.4628 53.1056 59.1564 50.3179 59.4232C49.0774 59.5432 48.3438 59.5432 47.3168 59.4232C44.8225 59.1564 45.1293 59.0364 48.2905 59.0497C51.1182 59.0497 51.3583 59.0364 52.5721 58.7029C54.1193 58.2761 55.213 57.7426 56.08 56.9823C57.0404 56.1286 57.4939 55.4484 57.4939 54.8481C57.4939 54.408 57.4405 54.3013 57.0671 54.1145C56.5202 53.8344 55.5865 53.8211 54.0926 54.1145C51.3983 54.6214 51.3716 54.6214 46.6899 53.3943C44.3823 52.794 42.1282 52.2072 41.688 52.0871C40.5276 51.7803 37.4197 51.7803 36.286 52.1005C35.1923 52.3939 33.6583 53.1542 32.9648 53.7411C32.3512 54.2746 29.4835 57.4625 29.4835 57.6225C29.4835 57.6759 31.0307 59.2765 32.9247 61.1705L36.3794 64.6251L37.2597 64.1449C38.5535 63.4647 39.0203 63.438 41.5413 63.8648C45.9429 64.6385 49.2642 64.2383 53.7725 62.3976C56.7336 61.1838 58.6276 60.0768 61.0419 58.1427C63.7229 55.9952 65.737 53.0742 65.9904 50.9934C66.0571 50.4198 66.0304 50.3131 65.7236 50.0063C65.4302 49.7129 65.2568 49.6595 64.6699 49.6595C64.2831 49.6729 63.6695 49.7663 63.2961 49.8996Z" fill="#EF4325"/>
<path d="M26.5091 58.9829C25.1352 60.3568 24.9351 60.6102 25.0152 60.877C25.0685 61.0504 26.8559 62.9577 29.0033 65.0919C31.9377 68.0263 32.9781 69 33.2182 69C33.6851 69 36.5528 66.1189 36.5528 65.6521C36.5528 65.3987 35.6858 64.4516 32.698 61.4772C30.5772 59.3564 28.7632 57.5824 28.6699 57.5157C28.2831 57.2756 28.0563 57.4357 26.5091 58.9829ZM33.1915 63.9314C34.6054 64.7984 33.485 66.7325 31.9778 66.0522C31.4176 65.7988 31.1775 64.9051 31.4976 64.3183C31.631 64.0648 32.2979 63.678 32.618 63.6647C32.698 63.6647 32.9515 63.7847 33.1915 63.9314Z" fill="#EF4325"/>
</svg>
