<svg width="51" height="51" viewBox="0 0 51 51" fill="none" xmlns="http://www.w3.org/2000/svg">
<circle cx="25.5" cy="25.5" r="25.5" fill="#FBD6E6"/>
<path d="M37.8387 17.1659C36.9304 17.5787 35.9514 17.85 34.9369 17.9798C35.975 17.3546 36.7771 16.3637 37.1546 15.1723C36.1755 15.7621 35.0902 16.175 33.946 16.4109C33.0141 15.3964 31.7048 14.8066 30.2185 14.8066C27.4464 14.8066 25.1815 17.0715 25.1815 19.8672C25.1815 20.2682 25.2287 20.6575 25.3113 21.0232C21.1119 20.8109 17.3725 18.7937 14.8835 15.7385C14.4471 16.4817 14.1994 17.3546 14.1994 18.2747C14.1994 20.0323 15.0841 21.5894 16.4524 22.4741C15.6149 22.4741 14.8364 22.2382 14.1522 21.8843C14.1522 21.8843 14.1522 21.8843 14.1522 21.9197C14.1522 24.3733 15.898 26.4258 18.21 26.8858C17.7854 27.0038 17.3371 27.0628 16.8771 27.0628C16.5586 27.0628 16.2401 27.0274 15.9334 26.9684C16.5704 28.962 18.4224 30.4483 20.6518 30.4836C18.9296 31.852 16.7473 32.6541 14.3645 32.6541C13.9635 32.6541 13.5624 32.6305 13.1613 32.5833C15.4026 34.0225 18.0685 34.86 20.9231 34.86C30.2185 34.86 35.3262 27.1454 35.3262 20.457C35.3262 20.2328 35.3262 20.0205 35.3144 19.7964C36.3052 19.0886 37.1546 18.1921 37.8387 17.1659Z" fill="#EF4325"/>
</svg>
